# xmcd
#
# Track frame offsets:
#	150
#	9622
#	21402
#	31890
#	43912
#	55892
#	66242
#	77092
#	89117
#	102635
#
# Disc length: 1501 seconds
#
# Revision: 0
# Processed by: cddbd v1.5.1PL0 Copyright (c) Steve Scherf et al.
# Submitted via: dBpowerAMP V4.0
#
DISCID=8a05db0a
DTITLE=David Johnson - Bluegrass Favorites
DYEAR=1900
DGENRE=Bluegrass
TTITLE0=Shuckin' The Corn
TTITLE1=Turkey In The Straw
TTITLE2=Cumberland Gap
TTITLE3=Little Maggie
TTITLE4=Cripple Creek
TTITLE5=Dueling Banjos
TTITLE6=Down Yonder
TTITLE7=Foggy Mountain Breakdown
TTITLE8=John Henry
TTITLE9=Dear Old Dixie
EXTD=Available at Dollywood.  Produced by Crossroads Marketing, Arden, NC
EXTT0=
EXTT1=
EXTT2=
EXTT3=
EXTT4=
EXTT5=
EXTT6=
EXTT7=
EXTT8=
EXTT9=
PLAYORDER=
